<svg id="1" xmlns="http://www.w3.org/2000/svg" viewBox="0 0 229 229">
  <path d="M114.5,229a115.345,115.345,0,0,1-23.076-2.326,113.873,113.873,0,0,1-40.942-17.228A114.834,114.834,0,0,1,9,159.068a113.922,113.922,0,0,1-6.672-21.493,115.617,115.617,0,0,1,0-46.151A113.872,113.872,0,0,1,19.555,50.482,114.834,114.834,0,0,1,69.931,9,113.922,113.922,0,0,1,91.424,2.326a115.617,115.617,0,0,1,46.151,0,113.873,113.873,0,0,1,40.942,17.228A114.833,114.833,0,0,1,220,69.931a113.921,113.921,0,0,1,6.672,21.493,115.617,115.617,0,0,1,0,46.151,113.873,113.873,0,0,1-17.228,40.942A114.833,114.833,0,0,1,159.068,220a113.921,113.921,0,0,1-21.493,6.672A115.345,115.345,0,0,1,114.5,229Zm0-194A79.5,79.5,0,1,0,194,114.5,79.59,79.59,0,0,0,114.5,35Z"/>
</svg>