<svg id="1" xmlns="http://www.w3.org/2000/svg" viewBox="0 0 350 350">
  <path d="M325.607,179.454A45.027,45.027,0,0,1,354.5,137.447a178.45,178.45,0,0,0-21.6-52.031,45.652,45.652,0,0,1-18.32,3.918A44.929,44.929,0,0,1,273.471,26.1,178.007,178.007,0,0,0,221.518,4.5,45.078,45.078,0,0,1,179.5,33.386,45.078,45.078,0,0,1,137.482,4.5,178.548,178.548,0,0,0,85.438,26.1,44.929,44.929,0,0,1,44.331,89.335a44.166,44.166,0,0,1-18.32-3.918A182.4,182.4,0,0,0,4.5,137.538a44.975,44.975,0,0,1,28.893,42.007,45.078,45.078,0,0,1-28.8,42.007,178.45,178.45,0,0,0,21.6,52.031A44.951,44.951,0,0,1,85.529,332.9a179.59,179.59,0,0,0,52.044,21.6,44.922,44.922,0,0,1,83.854,0,178.547,178.547,0,0,0,52.044-21.6,45,45,0,0,1,59.336-59.32,179.491,179.491,0,0,0,21.6-52.031A45.241,45.241,0,0,1,325.607,179.454ZM180.32,252.261a72.9,72.9,0,1,1,72.917-72.9A72.887,72.887,0,0,1,180.32,252.261Z" transform="translate(-4.5 -4.5)"/>
</svg>